<svg width="173" height="53" fill="none" xmlns="http://www.w3.org/2000/svg"><path d="M.504 1.6v9.36h10.08V52h11.664V1.6H.504zM46.555.736c-10.656 0-19.08 6.48-19.08 16.776 0 9.504 7.632 15.696 17.352 15.696 5.256 0 9.576-1.584 12.528-4.536-.36 9.72-5.832 14.688-14.184 14.688-3.456 0-6.696-.648-9.432-2.52l-4.32 8.568c3.528 2.232 8.64 3.456 13.968 3.456 15.264 0 25.704-9.72 25.704-27.144C69.091 9.448 60.523.736 46.555.736zm.864 23.76c-5.184 0-8.568-2.952-8.568-7.56s3.456-7.488 8.424-7.488c5.544 0 8.784 3.168 8.784 7.488 0 4.392-3.528 7.56-8.64 7.56zm30.818 28.08c3.888 0 6.984-2.952 6.984-7.056 0-4.176-3.096-6.912-6.984-6.912s-6.984 2.736-6.984 6.912c0 4.104 3.096 7.056 6.984 7.056zM106.009.736c-10.656 0-19.08 6.48-19.08 16.776 0 9.504 7.632 15.696 17.352 15.696 5.256 0 9.576-1.584 12.528-4.536-.36 9.72-5.832 14.688-14.184 14.688-3.456 0-6.696-.648-9.432-2.52l-4.32 8.568c3.528 2.232 8.64 3.456 13.968 3.456 15.264 0 25.704-9.72 25.704-27.144 0-16.272-8.568-24.984-22.536-24.984zm.864 23.76c-5.184 0-8.568-2.952-8.568-7.56s3.456-7.488 8.424-7.488c5.544 0 8.784 3.168 8.784 7.488 0 4.392-3.528 7.56-8.64 7.56zm42.82-23.76c-10.656 0-19.08 6.48-19.08 16.776 0 9.504 7.632 15.696 17.352 15.696 5.256 0 9.576-1.584 12.528-4.536-.36 9.72-5.832 14.688-14.184 14.688-3.456 0-6.696-.648-9.432-2.52l-4.32 8.568c3.528 2.232 8.64 3.456 13.968 3.456 15.264 0 25.704-9.72 25.704-27.144 0-16.272-8.568-24.984-22.536-24.984zm.864 23.76c-5.184 0-8.568-2.952-8.568-7.56s3.456-7.488 8.424-7.488c5.544 0 8.784 3.168 8.784 7.488 0 4.392-3.528 7.56-8.64 7.56z" fill="#4A4D60"/></svg>